<?xml version="1.0" encoding="UTF-8" standalone="no"?>
<svg viewBox="0 0 1200 900" version="1.1" xmlns="http://www.w3.org/2000/svg" xmlns:xlink="http://www.w3.org/1999/xlink" xmlns:sketch="http://www.bohemiancoding.com/sketch/ns">
    <!-- Generator: Sketch 3.4.1 (15681) - http://www.bohemiancoding.com/sketch -->
    <title>3GO</title>
    <desc>Created with Sketch.</desc>
    <defs></defs>
    <g id="Page-1" stroke="none" stroke-width="1" fill="none" fill-rule="evenodd" sketch:type="MSPage">
        <g id="3GO" sketch:type="MSArtboardGroup">
            <g id="3" sketch:type="MSLayerGroup">
                <rect id="Rectangle-1" stroke="#979797" stroke-width="2" sketch:type="MSShapeGroup" x="0" y="0" width="1200" height="900"></rect>
                <rect id="Rectangle-1" stroke="#000000" stroke-width="8" sketch:type="MSShapeGroup" x="74" y="76" width="320" height="750"></rect>
                <rect id="Rectangle-1" stroke="#000000" stroke-width="8" sketch:type="MSShapeGroup" x="439.744136" y="76" width="320" height="750"></rect>
                <rect id="Rectangle-1" stroke="#000000" stroke-width="8" sketch:type="MSShapeGroup" x="807" y="76" width="320" height="750"></rect>
            </g>
            <g id="C1" sketch:type="MSLayerGroup" transform="translate(93.000000, 345.000000)">
                <path d="M0.5,194 L263.5,194" id="Line" stroke="#B3B3B3" stroke-width="2" stroke-linecap="square" sketch:type="MSShapeGroup"></path>
                <rect id="Rectangle-19" fill="#D95449" sketch:type="MSShapeGroup" x="15" y="164" width="36" height="30"></rect>
                <rect id="Rectangle-19" fill="#D95449" sketch:type="MSShapeGroup" x="54" y="179" width="36" height="15"></rect>
                <rect id="Rectangle-19" fill="#D95449" sketch:type="MSShapeGroup" x="93" y="180" width="36" height="14"></rect>
                <rect id="Rectangle-19" fill="#D95449" sketch:type="MSShapeGroup" x="132" y="169" width="36" height="25"></rect>
                <rect id="Rectangle-19" fill="#D95449" sketch:type="MSShapeGroup" x="171" y="169" width="36" height="25"></rect>
                <rect id="Rectangle-19" fill="#D95449" sketch:type="MSShapeGroup" x="212" y="169" width="36" height="25"></rect>
                <rect id="Rectangle-19" fill="#D95449" sketch:type="MSShapeGroup" x="54" y="179" width="36" height="15"></rect>
                <rect id="Rectangle-19" fill="#D95449" sketch:type="MSShapeGroup" x="93" y="180" width="36" height="14"></rect>
                <rect id="Rectangle-19" fill="#D95449" sketch:type="MSShapeGroup" x="132" y="164" width="36" height="30"></rect>
                <rect id="Rectangle-19" fill="#D95449" sketch:type="MSShapeGroup" x="171" y="122" width="36" height="72"></rect>
                <rect id="Rectangle-19" fill="#D95449" sketch:type="MSShapeGroup" x="212" y="135" width="36" height="59"></rect>
                <rect id="Rectangle-19" fill="#B6D0D4" sketch:type="MSShapeGroup" x="15" y="0" width="36" height="158"></rect>
                <rect id="Rectangle-19" fill="#B6D0D4" sketch:type="MSShapeGroup" x="54" y="74" width="36" height="99"></rect>
                <rect id="Rectangle-19" fill="#B6D0D4" sketch:type="MSShapeGroup" x="93" y="47" width="36" height="129"></rect>
                <rect id="Rectangle-19" fill="#B6D0D4" sketch:type="MSShapeGroup" x="132" y="30" width="36" height="129"></rect>
                <rect id="Rectangle-19" fill="#B6D0D4" sketch:type="MSShapeGroup" x="171" y="17" width="36" height="99"></rect>
                <rect id="Rectangle-19" fill="#B6D0D4" sketch:type="MSShapeGroup" x="212" y="0" width="36" height="129"></rect>
            </g>
            <g id="C2" sketch:type="MSLayerGroup" transform="translate(466.000000, 337.000000)" stroke="#979797">
                <path d="M31.3746071,14.5034301 L32.3339844,8.81445312 L39.4121094,4.01367188 L47.5351563,2.4921875 L56.1132812,3.36132813 L59.1972656,0.27734375 L73.59375,5.11914063 L77.2402344,4.61914062 L89.03125,18.1035156 L95.2617187,19.3203125 L97.6953125,16.4082031 L109.115234,11.9140625 L116.652344,13.8027344 L120.779297,17.9296875 L132.638672,22.4453125 L147.511719,23.640625 L157.501953,13.9765625 L169.054688,11.4355469 L182.324219,10.9570312 L197.615234,17.1464844 L205.755859,17.6660156 L214.984375,9.48242187 L221.410156,8.09179688 L224.841797,4.16015625 L230.009766,3.48828125 L239.152344,18.4941406 L241.890625,29.9140625 L245.126953,32.3046875 L247.732422,23.4882813 L252.337891,27.1152344 L249.189453,38.1054688 L247.322266,42.9042969 L244.390625,54.2832031 L237.353516,56.3691406 L228.167969,68.484375 L226.167969,79.5585938 L222.021484,81.2753906 L223.953125,92.4375 L214.246094,95.2167969 L213.59375,106.638672 L204.320312,113.828125 L198.087891,130.634766 L191.767578,139.972656 L188.814453,146.53125 L187.292969,151.982422 L182.908203,157.171875 L166.123047,144.404297 L157.460938,146.966797 L139.263672,162.015625 L129.710938,172.462891 L130.210938,182.689453 L123.111328,192.916016 L117.962891,196.695313 L89.7148438,201.775391 L72.7128906,203.816406 L59.5351562,183.773438 L48.6542969,169.789062 L34.2597656,158.625 L0.515625,159.798828 L2.59960938,124.970703 L3.94726562,102.628906 L11.3945312,99.6542969 L12.7636719,91.7480469 L23.4902344,80.1953125 L21.9277344,73.6171875 L25.359375,73.1171875 L26.5527344,67.5996094 L23.9902344,60.3886719 L18.9746094,54.5253906 L22.7539062,45.0371094 L22.0371094,28.7519531 L29.7441406,24.171875 L31.3746071,14.5034301 Z" id="Path-949" fill="#E5E9EC" sketch:type="MSShapeGroup"></path>
                <path d="M86.814209,15.5680757 L77.2402344,4.61914062 L73.59375,5.11914063 L59.1972656,0.27734375 L56.1132812,3.36132813 L47.5351563,2.4921875 L39.4121094,4.01367188 L32.3339844,8.81445312 L31.3746071,14.5034301 L31.3238238,14.8045684 L46.6503906,17.0078125 L46.9960938,33.4257813 L42.3710938,33.4257813 L40.3066406,49.3417969 L49.8613281,46.0625 L51.4023438,34.0097656 L61.78125,35.203125 L62.4765625,27.0820313 L72.6816406,24.6289063 L72.703125,17.8984375 L80.6933594,16.3554688 L86.814209,15.5680757 Z" id="Path-949" fill="#F5C19A" sketch:type="MSShapeGroup"></path>
                <path d="M93.7095427,19.0171759 L95.2617187,19.3203125 L97.6953125,16.4082031 L109.115234,11.9140625 L116.652344,13.8027344 L120.779297,17.9296875 L132.638672,22.4453125 L147.511719,23.640625 L155.031933,16.3659392 L157.979492,19.5966797 L159.260742,22.9628906 L166.198242,23.2236328 L167.230469,29.9658203 L170.182617,34.8085938 L174.817383,53.5146484 L159.553711,65.6523437 L168.053711,80.3837891 L173.786133,84.8789062 L177.575195,91.5449219 L166.740234,93.8691406 L151.041992,85.8027344 L151.052734,90.2978516 L148.479492,93.3056641 L140.478516,92.0136719 L137.102539,88.6474609 L138.155273,83.6972656 L132.87793,84.2080078 L132.357422,78.0527344 L124.638672,60.3779297 L115.800781,55.8623047 L116.061523,52.2460937 L113.553711,51.6376953 L105.563477,55.9697266 L103.337891,54.15625 L99.9921875,56.4912109 L96.2236328,56.0673828 L95.3349609,59.6494141 L92.7294922,56.4570312 L89.4951172,52.2880859 L90.2314453,44.7744141 L93.3476562,45.0351562 L96.734375,42.2558594 L94.9111328,38.8896484 L93.4345703,31.8662109 L92.7392578,22.6054687 L93.7095427,19.0171759 Z" id="Path-949" fill="#FF8958" sketch:type="MSShapeGroup"></path>
                <path d="M155.010775,16.3864057 L157.501953,13.9765625 L169.054688,11.4355469 L182.324219,10.9570312 L197.615234,17.1464844 L205.755859,17.6660156 L214.984375,9.48242187 L221.410156,8.09179688 L224.841797,4.16015625 L230.009766,3.48828125 L239.152344,18.4941406 L241.890625,29.9140625 L245.126953,32.3046875 L247.732422,23.4882813 L252.337891,27.1152344 L249.189453,38.1054688 L247.322266,42.9042969 L244.390625,54.2832031 L237.353516,56.3691406 L232.743235,62.4498488 L231.089844,63.2021484 L225.660156,63.4628906 L222.880859,73.8212891 L214.912109,70.2705078 L207.84375,76.4707031 L203.143555,77.2636719 L200.103516,82.3007812 L193.253906,81.6162109 L188.237305,76.1767578 L190.822266,71.1601562 L186.847656,70.2265625 L187.629883,62.4306641 L180.029297,54.6464844 L175.00293,53.4414062 L170.323242,34.4638672 L167.228516,30.1640625 L166.186523,23.2792969 L159.183594,22.7685547 L155.188477,16.7109375 L155.010775,16.3864057 Z" id="Path-949" fill="#C0271D" sketch:type="MSShapeGroup"></path>
            </g>
            <g id="C3" sketch:type="MSLayerGroup" transform="translate(845.000000, 331.000000)">
                <rect id="Rectangle-36" fill-opacity="0.5" fill="#E5E9EC" sketch:type="MSShapeGroup" x="0" y="20" width="261" height="190"></rect>
                <path d="M1.36132812,125.458984 L20.640625,118.683594 L45.3945312,122.179688 L110.527344,98.7304688 L131.325195,98.7304688 L165.835938,89.4277344 L205.238281,72.0019531 L228.275391,72.0019531 L245.691406,66.5703125 L262.671875,79.1386719" id="Path-957" stroke="#F25046" stroke-width="3" sketch:type="MSShapeGroup"></path>
                <path d="M1.12109375,114.884766 L16.7324219,114.884766 L37.0136719,114.884766 L52.1503906,108.275391 L73.625,108.275391 L94.1621094,121.832031 L108.052734,128.939453 L130.966797,128.939453 L164.445312,120.337891 L189.808594,104.289062 L206.884766,95.5488281 L227.185547,104.289062 L243.603516,101.365234 L260.8125,120.337891" id="Path-958" stroke="#387EA3" stroke-width="3" sketch:type="MSShapeGroup"></path>
                <path d="M0.5,150 L261.5,150" id="Line" stroke="#E6E6E6" stroke-width="2" stroke-linecap="square" sketch:type="MSShapeGroup"></path>
                <path d="M0.5,90 L261.5,90" id="Line" stroke="#E6E6E6" stroke-width="2" stroke-linecap="square" sketch:type="MSShapeGroup"></path>
            </g>
            <g id="1-+-2-+-3" sketch:type="MSLayerGroup" transform="translate(191.000000, 306.000000)" font-weight="bold" font-family="'Helvetica Neue', Helvetica, Roboto, Arial, sans-serif" line-spacing="240" font-size="210" sketch:alignment="middle" fill="#333333">
                <text id="1" sketch:type="MSTextLayer">
                    <tspan x="0" y="208">1</tspan>
                </text>
                <text id="2" sketch:type="MSTextLayer">
                    <tspan x="345.744136" y="208">2</tspan>
                </text>
                <text id="3" sketch:type="MSTextLayer">
                    <tspan x="714" y="208">3</tspan>
                </text>
            </g>
        </g>
    </g>
</svg>
